# xmcd
#
# Track frame offsets: 
#        150
#        10967
#        23277
#        35807
#        44534
#        53434
#        63750
#        74326
#        85150
#        94007
#        106298
#        118665
#
# Disc length: 1750 seconds
#
# Revision: 0
# Processed by: cddbd v1.5.2PL0 Copyright (c) Steve Scherf et al.
# Submitted via: ExactAudioCopyFreeDBPlugin 1.0
#
DISCID=9006d40c
DTITLE=Don Bowman - Funny Way To Make An Album
DYEAR=1966
DGENRE=Country
TTITLE0=Dear Harlan Howard
TTITLE1=The Other Ringo
TTITLE2=I Get The Feeling We're Through
TTITLE3=Dear Sister
TTITLE4=That's Show Biz
TTITLE5=Little Diesel Drivin' Devil
TTITLE6=Things Are Looking Up
TTITLE7=More Than Me
TTITLE8=Kansas City Star
TTITLE9=Freddy Four Toes
TTITLE10=Boll Weevil Air Lines
TTITLE11=Freda On The Freeway
EXTD=
EXTT0=
EXTT1=
EXTT2=
EXTT3=
EXTT4=
EXTT5=
EXTT6=
EXTT7=
EXTT8=
EXTT9=
EXTT10=
EXTT11=
PLAYORDER=
